<?xml version="1.0" encoding="utf-8"?>
<!-- Generator: Adobe Illustrator 20.0.0, SVG Export Plug-In . SVG Version: 6.00 Build 0)  -->
<svg version="1.1" id="Ebene_1" xmlns="http://www.w3.org/2000/svg" xmlns:xlink="http://www.w3.org/1999/xlink" x="0px" y="0px"
	 viewBox="0 0 64 64" style="enable-background:new 0 0 64 64;" xml:space="preserve">
<style type="text/css">
	.st0{fill:#F7DAA3;}
	.st1{fill:#8F6F9F;}
	.st2{fill:#998E9B;}
	.st3{fill:#FAEDD6;}
</style>
<g id="Ebene_2">
	<polygon class="st0" points="32,2.9 23,7.6 11.4,11 7.4,11.5 7.4,21.8 9.8,36.6 18.8,50.4 29.3,59.4 32,60.6 47.4,48.1 54.3,37.1 
		57.1,18.2 56.7,11.5 47.5,9.7 35.9,4.9 	"/>
</g>
<g id="layer101">
	<path class="st1" d="M23.7,56.5C11.1,45.7,6.9,37,6.6,21.1L6.5,10.6l6.6-1.2C19.6,8.2,27.3,5,28.5,3c0.8-1.3,6.2-1.3,7,0
		c1.2,2,8.9,5.2,15.4,6.4l6.6,1.2l-0.1,10.5c-0.2,15.6-4.5,24.6-16.8,35.2C32.7,63.1,31.5,63.1,23.7,56.5z M39.4,53.9
		c3.9-3.6,6.6-6.9,6.6-8.1c0-1.3,0.5-1.8,1.4-1.5c3.2,1.3,8.6-15.4,8.6-26.8v-5.2l-5.2-0.6c-3.1-0.4-8.2-2.1-12.2-4.2l-7-3.5
		l-3.5,2.3c-5.5,3.5-8.7,4.6-14.6,5.3L8,12.3v5.2c0,11.4,5.4,28.1,8.6,26.8c0.9-0.3,1.4,0.2,1.4,1.5C18,47.7,30.1,60,31.9,60
		C32.3,60,35.7,57.3,39.4,53.9z"/>
	<path class="st1" d="M21,45.5c0-0.8,0.5-1.5,1-1.5c0.6,0,1,0.7,1,1.5c0,0.8-0.4,1.5-1,1.5C21.5,47,21,46.3,21,45.5z"/>
	<path class="st1" d="M26,45.5c0-0.8,0.5-1.5,1-1.5c0.6,0,1,0.7,1,1.5c0,0.8-0.4,1.5-1,1.5C26.5,47,26,46.3,26,45.5z"/>
	<path class="st1" d="M31,45.5c0-0.8,0.5-1.5,1-1.5c0.6,0,1,0.7,1,1.5c0,0.8-0.4,1.5-1,1.5C31.5,47,31,46.3,31,45.5z"/>
	<path class="st1" d="M36,45.5c0-0.8,0.5-1.5,1-1.5c0.6,0,1,0.7,1,1.5c0,0.8-0.4,1.5-1,1.5C36.5,47,36,46.3,36,45.5z"/>
	<path class="st1" d="M41,45.5c0-0.8,0.5-1.5,1-1.5c0.6,0,1,0.7,1,1.5c0,0.8-0.4,1.5-1,1.5C41.5,47,41,46.3,41,45.5z"/>
	<path class="st1" d="M27.8,37.3c0-0.4-0.2-3-0.2-5.8c-0.1-2.7-0.5-5.8-1-6.7c-0.5-1.2,0-2.5,1.8-4.3c3.1-3.1,4.1-3.1,7.2,0
		c1.8,1.8,2.3,3.1,1.8,4.3c-0.5,0.9-0.9,4.2-0.9,7.2v5.5l-4.2,0.3C29.9,38,27.9,37.8,27.8,37.3z M34.5,32.1c-0.4-2.5-0.2-4.6,0.7-6
		c1.7-2.7,0-5.6-3.2-5.6s-4.9,2.9-3.2,5.6c0.9,1.4,1.1,3.5,0.7,6C28.8,36,28.9,36,32,36S35.2,36,34.5,32.1z"/>
	<path class="st1" d="M12.1,15.6c0.3-0.3,3.1-1.3,6.2-2.1c3.2-0.8,7.5-2.6,9.7-4l4.1-2.6L35,9c1.6,1.1,4.3,2.6,6,3.1
		c1.6,0.6,3,1.5,3,2c0,1.1-4.4-0.6-8.7-3.2l-3.1-2l-5.9,3C21.2,14.5,10.5,17.2,12.1,15.6z"/>
	<path class="st1" d="M48,15c0-0.5,0.4-1,0.9-1c0.6,0,1.3,0.5,1.6,1c0.3,0.6-0.1,1-0.9,1C48.7,16,48,15.6,48,15z"/>
</g>
<g id="layer102">
	<path class="st2" d="M29.5,32.1c0.4-2.5,0.2-4.6-0.7-6c-1.7-2.7,0-5.6,3.2-5.6s4.9,2.9,3.2,5.6c-0.9,1.4-1.1,3.5-0.7,6
		C35.2,36,35.1,36,32,36S28.8,36,29.5,32.1z"/>
</g>
<g id="layer105">
	<path class="st3" d="M15.6,30.4c-2-1.4-2-1.4,0-2.8c1.4-1.1,2.3-1.2,3.4-0.3c0.8,0.6,1.6,1.2,1.8,1.3c0.1,0-0.6,0.8-1.5,1.7
		C17.7,31.6,17.3,31.7,15.6,30.4z"/>
	<path class="st3" d="M31.1,14.6c-0.9-1-0.9-1.6-0.1-2.1c1.7-1,3.7,1.2,2.4,2.5C32.6,15.8,31.9,15.6,31.1,14.6z"/>
</g>
</svg>
