<?xml version="1.0" encoding="utf-8"?>
<!-- Generator: Adobe Illustrator 20.0.0, SVG Export Plug-In . SVG Version: 6.00 Build 0)  -->
<svg version="1.1" xmlns="http://www.w3.org/2000/svg" xmlns:xlink="http://www.w3.org/1999/xlink" x="0px" y="0px"
	 viewBox="0 0 452.1 359.3" style="enable-background:new 0 0 452.1 359.3;" xml:space="preserve">
<style type="text/css">
	.st0{display:none;fill:#89C149;}
	.st1{fill:#C8EDE6;}
	.st2{fill:#FDFCEF;}
	.st3{fill:#472B29;}
	.st4{fill:#FFFFFF;}
	.st5{fill:#EDF7F5;}
	.st6{fill:#85CFCC;}
	.st7{display:none;}
	.st8{display:inline;fill:#472B29;}
	.st9{display:inline;}
	.st10{fill:#88AE45;}
	.st11{display:inline;fill:#D1DC82;}
	.st12{display:inline;opacity:0.74;fill:#77CBD2;enable-background:new    ;}
	.st13{fill:#F7DAA3;}
	.st14{fill:#8F6F9F;}
	.st15{fill:#FAEDD6;}
</style>
<g id="Ebene_1">
	<circle class="st0" cx="210.5" cy="181.3" r="236.2"/>
	<path class="st1" d="M392,210.1c1.5-3.1,2.8-6.3,4-9.7c13.2-38.9-6.7-85.4-48.7-96.6c-4.5-56.9-44.5-96-89.7-102.6
		c-51.7-7.6-99.1,25.2-114.8,77.4c-19-6.7-37.5-5.9-54.9,4.3c-7.9,3.7-15.2,9.1-21.6,16.2c-9.5,10.4-15.7,23.6-18.3,37.5
		c-3.7,0.6-7.4,1.2-10.9,2.4C16.8,146.1,4.1,161,0.6,183.5c-2.2,14,2.2,27.9,4.7,33.6c9.7,22.3,32.1,34.9,54.9,31.6
		c1.1-0.2,2.8,0.3,3.8,1.2c1.2,35.6,18.5,67.1,44.4,85.1c41.6,28.9,95.1,20,128.9-19.6c14.5,14.8,31.7,22,51.9,19.4
		c20.1-2.6,35.7-13.7,47.1-31.7c5.3,1.4,10.3,3.5,15.4,4c20.2,2.2,36.5-5.9,48.7-24c0.4-0.6,1-1.1,1.5-1.6c1.7-4,3.5-8,5.2-12
		c0.8-6.1,2.1-12.1,2.2-18.2C409.5,234.9,402.9,220,392,210.1z"/>
	<g>
		<g>
			<path class="st2" d="M351.1,271c0,0,58.5,0,58.8,0c13.5,0,24.4-10.9,24.4-24.4c0-11.8-8.3-21.6-19.4-23.9c0.1-1,0.2-2.1,0.2-3.1
				c0-14-11.3-25.3-25.3-25.3c-8.3,0-15.6,4-20.2,10.1c-1.2-15.6-15.1-27.6-31.3-25.6c-11.9,1.5-21.7,10.7-23.9,22.4
				c-0.7,3.8-0.6,7.4,0.1,10.9c-3.2-3.4-7.7-5.6-12.8-5.6c-9.3,0-16.8,7.2-17.4,16.3c-4.2-0.9-8.8-0.9-13.6,0.9
				c-9.2,3.5-15.8,12.1-16.1,21.9C254,259.5,265.2,271,279,271c1,0,4.7,0,5.6,0h50.8"/>
			<path class="st3" d="M409.9,273.5h-58.8c-1.4,0-2.5-1.1-2.5-2.5s1.1-2.5,2.5-2.5h58.8c12.1,0,21.9-9.8,21.9-21.9
				c0-10.3-7.3-19.4-17.4-21.5c-1.3-0.3-2.1-1.5-2-2.8c0.1-0.9,0.2-1.9,0.2-2.8c0-12.6-10.2-22.8-22.8-22.8
				c-7.2,0-13.8,3.3-18.2,9.1c-0.6,0.8-1.7,1.2-2.7,0.9c-1-0.3-1.7-1.2-1.8-2.2c-0.5-6.9-3.9-13.4-9.3-17.7
				c-5.4-4.4-12.3-6.4-19.3-5.5c-10.8,1.3-19.8,9.7-21.8,20.4c-0.6,3.3-0.6,6.7,0.1,9.9c0.2,1.1-0.3,2.2-1.3,2.7
				c-1,0.5-2.2,0.3-3-0.5c-2.9-3.1-6.8-4.8-11-4.8c-7.8,0-14.4,6.1-14.9,14c-0.1,0.7-0.4,1.4-1,1.8c-0.6,0.4-1.3,0.6-2,0.4
				c-4.2-0.9-8.2-0.7-12.2,0.8c-8.3,3.1-14.2,11-14.5,19.7c-0.2,6,1.9,11.8,6.1,16.1c4.2,4.3,9.8,6.7,15.8,6.7h56.3
				c1.4,0,2.5,1.1,2.5,2.5s-1.1,2.5-2.5,2.5H279c-7.4,0-14.3-2.9-19.4-8.3c-5.1-5.3-7.8-12.3-7.5-19.7c0.4-10.6,7.5-20.3,17.8-24.2
				c4-1.5,8.1-2,12.3-1.5c1.9-9.1,10-15.9,19.5-15.9c3.4,0,6.8,0.9,9.7,2.6c0-1.9,0.2-3.9,0.5-5.8c2.4-12.8,13.1-22.9,26.1-24.5
				c8.4-1,16.6,1.3,23.1,6.6c5,4.1,8.6,9.8,10.2,16c5.1-4.6,11.6-7.1,18.6-7.1c15.3,0,27.8,12.5,27.8,27.8c0,0.4,0,0.8,0,1.2
				c11.3,3.4,19.2,13.9,19.2,25.8C436.9,261.4,424.8,273.5,409.9,273.5z"/>
		</g>
		<g>
			<path class="st2" d="M336.9,217.1c-9-0.6-16.8,5.7-17.4,13.9c-0.1,1,0,2,0.1,3c-1.7-2-4.3-3.3-7.3-3.5
				c-5.4-0.4-10.1,3.2-10.8,8.1c-1-0.3-2-0.5-3.1-0.5c-7.9-0.5-14.7,4.9-15.2,12.2"/>
			<path class="st3" d="M283.3,251.6C283.3,251.6,283.3,251.6,283.3,251.6c-0.8,0-1.3-0.6-1.3-1.3c0.5-7.9,7.9-13.9,16.5-13.4
				c0.7,0,1.4,0.1,2,0.3c1.4-4.8,6.3-8.2,11.8-7.8c2.1,0.1,4.1,0.8,5.8,1.9c0-0.1,0-0.2,0-0.3c0.6-9,9-15.7,18.7-15.1
				c0.7,0,1.2,0.6,1.2,1.3c0,0.7-0.6,1.2-1.3,1.2c-8.3-0.6-15.5,5.2-16,12.8c-0.1,0.9,0,1.8,0.1,2.8c0.1,0.5-0.2,1.1-0.7,1.3
				c-0.5,0.2-1.1,0.1-1.5-0.3c-1.6-1.8-3.9-2.9-6.4-3.1c-4.7-0.3-8.9,2.8-9.5,7c0,0.4-0.3,0.7-0.5,0.9c-0.3,0.2-0.7,0.3-1,0.2
				c-0.9-0.3-1.9-0.4-2.8-0.5c-7.2-0.5-13.4,4.5-13.9,11C284.5,251.1,284,251.6,283.3,251.6z"/>
		</g>
		<g>
			<path class="st2" d="M419.8,225.5c-8.5-4-18.3-1.2-21.9,6.3c-0.4,0.9-0.8,1.9-1,2.9"/>
			<path class="st3" d="M396.9,235.9c-0.1,0-0.2,0-0.3,0c-0.7-0.2-1.1-0.8-0.9-1.5c0.2-1.1,0.6-2.1,1.1-3.1
				c3.9-8.1,14.5-11.2,23.6-6.9c0.6,0.3,0.9,1,0.6,1.7c-0.3,0.6-1,0.9-1.7,0.6c-7.9-3.7-17-1.1-20.3,5.7c-0.4,0.8-0.7,1.7-0.9,2.6
				C398,235.5,397.4,235.9,396.9,235.9z"/>
		</g>
	</g>
	<g>
		<g>
			<path class="st4" d="M76.4,249.6H26.2c-1.4,0-2.5-1.1-2.5-2.5s1.1-2.5,2.5-2.5h50.2c1.4,0,2.5,1.1,2.5,2.5S77.7,249.6,76.4,249.6
				z"/>
			<path class="st4" d="M90.8,249.6h-7.2c-1.4,0-2.5-1.1-2.5-2.5s1.1-2.5,2.5-2.5h7.2c1.4,0,2.5,1.1,2.5,2.5S92.2,249.6,90.8,249.6z
				"/>
			<path class="st4" d="M111,249.6H98.3c-1.4,0-2.5-1.1-2.5-2.5s1.1-2.5,2.5-2.5H111c1.4,0,2.5,1.1,2.5,2.5S112.4,249.6,111,249.6z"
				/>
		</g>
		<g>
			<path class="st4" d="M111,258.9H63c-1.4,0-2.5-1.1-2.5-2.5s1.1-2.5,2.5-2.5H111c1.4,0,2.5,1.1,2.5,2.5S112.4,258.9,111,258.9z"/>
			<path class="st4" d="M54.3,258.9h-2.9c-1.4,0-2.5-1.1-2.5-2.5s1.1-2.5,2.5-2.5h2.9c1.4,0,2.5,1.1,2.5,2.5S55.7,258.9,54.3,258.9z
				"/>
			<path class="st4" d="M42.4,258.9h-7.3c-1.4,0-2.5-1.1-2.5-2.5s1.1-2.5,2.5-2.5h7.3c1.4,0,2.5,1.1,2.5,2.5S43.8,258.9,42.4,258.9z
				"/>
		</g>
		<path class="st4" d="M88.1,240.3H63c-1.4,0-2.5-1.1-2.5-2.5s1.1-2.5,2.5-2.5h25.1c1.4,0,2.5,1.1,2.5,2.5S89.5,240.3,88.1,240.3z"
			/>
		<path class="st4" d="M88.1,230.9h-6.3c-1.4,0-2.5-1.1-2.5-2.5s1.1-2.5,2.5-2.5h6.3c1.4,0,2.5,1.1,2.5,2.5S89.5,230.9,88.1,230.9z"
			/>
		<path class="st4" d="M71.8,268.2H63c-1.4,0-2.5-1.1-2.5-2.5s1.1-2.5,2.5-2.5h8.8c1.4,0,2.5,1.1,2.5,2.5S73.1,268.2,71.8,268.2z"/>
	</g>
	<g>
		<g>
			<g>
				<path class="st2" d="M151.2,196.5c9.4,0,17.6,0,17.7,0c10.6,0,19.1-8.4,19.1-18.7c0-9-6.5-16.5-15.2-18.3
					c0.1-0.8,0.2-1.6,0.2-2.4c0-10.7-8.9-19.4-19.8-19.4c-6.5,0-12.2,3-15.8,7.7c-0.9-11.9-11.8-21.1-24.5-19.6
					c-9.3,1.1-17,8.1-18.7,17.2c-0.6,2.9-0.5,5.7,0.1,8.3c-2.5-2.6-6-4.3-10-4.3c-7.2,0-13.1,5.5-13.6,12.5
					c-3.3-0.7-6.9-0.7-10.6,0.7c-7.2,2.6-12.3,9.3-12.6,16.8c-0.4,10.7,8.3,19.4,19.1,19.4c0.8,0,3.7,0,4.4,0h39.7 M118.8,196.5h1.8
					"/>
				<path class="st3" d="M168.9,199h-17.7c-1.4,0-2.5-1.1-2.5-2.5s1.1-2.5,2.5-2.5h17.7c9.2,0,16.6-7.3,16.6-16.2
					c0-7.6-5.5-14.3-13.2-15.8c-1.3-0.3-2.1-1.5-2-2.8c0.1-0.7,0.1-1.4,0.1-2.1c0-9.3-7.8-16.9-17.3-16.9c-5.5,0-10.5,2.5-13.8,6.7
					c-0.6,0.8-1.7,1.2-2.7,0.9c-1-0.3-1.7-1.2-1.8-2.2c-0.4-5.1-2.8-9.7-6.8-13c-4.1-3.4-9.4-4.9-14.9-4.3c-8.2,1-15,7.2-16.5,15.1
					c-0.5,2.5-0.5,4.9,0.1,7.4c0.2,1.1-0.3,2.2-1.3,2.7c-1,0.5-2.2,0.3-3-0.5c-2.1-2.3-5-3.5-8.2-3.5c-5.8,0-10.7,4.5-11.1,10.1
					c-0.1,0.7-0.4,1.4-1,1.8c-0.6,0.4-1.3,0.6-2,0.4c-3.2-0.7-6.2-0.5-9.2,0.6c-6.3,2.3-10.7,8.2-11,14.5c-0.2,4.4,1.4,8.5,4.5,11.7
					c3.2,3.3,7.5,5.1,12.1,5.1h44c1.4,0,2.5,1.1,2.5,2.5s-1.1,2.5-2.5,2.5h-44c-5.9,0-11.7-2.4-15.7-6.7c-4-4.2-6.1-9.6-5.9-15.4
					c0.3-8.4,6.1-16,14.2-19c3.1-1.1,6.2-1.5,9.4-1.2c1.7-7,8.1-12.1,15.7-12.1c2.5,0,4.9,0.6,7.1,1.6c0-1.2,0.2-2.4,0.4-3.6
					c1.9-10,10.5-17.9,20.8-19.2c6.8-0.8,13.4,1.1,18.6,5.4c3.7,3.1,6.4,7,7.7,11.5c4-3.2,8.9-5,14.2-5c12.3,0,22.3,9.8,22.3,21.9
					c0,0.2,0,0.3,0,0.5c8.8,2.8,15,10.9,15,20.2C190.5,189.5,180.8,199,168.9,199z M120.6,199h-1.8c-1.4,0-2.5-1.1-2.5-2.5
					s1.1-2.5,2.5-2.5h1.8c1.4,0,2.5,1.1,2.5,2.5S122,199,120.6,199z"/>
			</g>
			<path class="st3" d="M160.3,170c-0.1,0-0.2,0-0.3,0c-0.7-0.1-1.1-0.8-0.9-1.5c0.2-0.8,0.5-1.6,0.8-2.4c3-6.1,11.4-8.4,18.6-5
				c0.6,0.3,0.9,1,0.6,1.7c-0.3,0.6-1,0.9-1.7,0.6c-6-2.8-12.9-1-15.3,3.9c-0.3,0.6-0.5,1.2-0.7,1.8
				C161.4,169.6,160.9,170,160.3,170z"/>
		</g>
		<g>
			<path class="st3" d="M134.5,199H129c-1.4,0-2.5-1.1-2.5-2.5s1.1-2.5,2.5-2.5h5.5c1.4,0,2.5,1.1,2.5,2.5S135.9,199,134.5,199z"/>
		</g>
	</g>
	<g>
		<g>
			<path class="st4" d="M306.2,38.9h-50.1c-1.4,0-2.5-1.1-2.5-2.5c0-1.4,1.1-2.5,2.5-2.5h50.1c1.4,0,2.5,1.1,2.5,2.5
				C308.7,37.7,307.6,38.9,306.2,38.9z"/>
			<path class="st4" d="M320.6,38.9h-7.2c-1.4,0-2.5-1.1-2.5-2.5c0-1.4,1.1-2.5,2.5-2.5h7.2c1.4,0,2.5,1.1,2.5,2.5
				C323.1,37.7,322,38.9,320.6,38.9z"/>
			<path class="st4" d="M340.9,38.9h-12.7c-1.4,0-2.5-1.1-2.5-2.5c0-1.4,1.1-2.5,2.5-2.5h12.7c1.4,0,2.5,1.1,2.5,2.5
				C343.4,37.7,342.3,38.9,340.9,38.9z"/>
		</g>
		<g>
			<path class="st4" d="M330.8,20.2h-48.1c-1.4,0-2.5-1.1-2.5-2.5s1.1-2.5,2.5-2.5h48.1c1.4,0,2.5,1.1,2.5,2.5
				S332.1,20.2,330.8,20.2z"/>
			<path class="st4" d="M274,20.2h-2.9c-1.4,0-2.5-1.1-2.5-2.5s1.1-2.5,2.5-2.5h2.9c1.4,0,2.5,1.1,2.5,2.5S275.4,20.2,274,20.2z"/>
			<path class="st4" d="M262.1,20.2h-7.3c-1.4,0-2.5-1.1-2.5-2.5s1.1-2.5,2.5-2.5h7.3c1.4,0,2.5,1.1,2.5,2.5S263.5,20.2,262.1,20.2z
				"/>
		</g>
		<path class="st4" d="M317.9,29.5h-25.1c-1.4,0-2.5-1.1-2.5-2.5s1.1-2.5,2.5-2.5h25.1c1.4,0,2.5,1.1,2.5,2.5S319.3,29.5,317.9,29.5
			z"/>
		<path class="st4" d="M317.9,20.2h-6.3c-1.4,0-2.5-1.1-2.5-2.5s1.1-2.5,2.5-2.5h6.3c1.4,0,2.5,1.1,2.5,2.5S319.3,20.2,317.9,20.2z"
			/>
		<path class="st4" d="M285.5,29.5h-8.8c-1.4,0-2.5-1.1-2.5-2.5s1.1-2.5,2.5-2.5h8.8c1.4,0,2.5,1.1,2.5,2.5S286.9,29.5,285.5,29.5z"
			/>
	</g>
	<g>
		<g>
			<path class="st5" d="M157.2,67h-4c-15.1,0-27.4,12-27.4,26.8v188.5c0,14.7,12.3,26.8,27.4,26.8h136.4c15.1,0,27.4-12,27.4-26.8
				V129c-24.7-24.1-38.8-37.9-63.5-62h-58.8"/>
			<path class="st3" d="M289.6,312.5H153.2c-17,0-30.9-13.6-30.9-30.3V93.7c0-16.7,13.9-30.2,30.9-30.2h4c1.9,0,3.5,1.6,3.5,3.5
				s-1.6,3.5-3.5,3.5h-4c-13.2,0-23.9,10.4-23.9,23.2v188.5c0,12.8,10.7,23.3,23.9,23.3h136.4c13.2,0,23.9-10.4,23.9-23.3V130.5
				l-61.4-60h-57.3c-1.9,0-3.5-1.6-3.5-3.5s1.6-3.5,3.5-3.5h58.8c0.9,0,1.8,0.4,2.4,1l63.5,62c0.7,0.7,1.1,1.6,1.1,2.5v153.2
				C320.5,298.9,306.6,312.5,289.6,312.5z"/>
		</g>
		<g>
			<path class="st6" d="M252.7,68.5v33.7c0,15.2,12,27.6,26.6,27.6h35.4"/>
			<path class="st3" d="M314.8,131.7h-35.4c-15.7,0-28.5-13.2-28.5-29.5V68.5c0-1,0.8-1.9,1.9-1.9s1.9,0.8,1.9,1.9v33.7
				c0,14.2,11.1,25.7,24.8,25.7h35.4c1,0,1.9,0.8,1.9,1.9S315.8,131.7,314.8,131.7z"/>
		</g>
		<path class="st3" d="M299.8,186.8c-1,0-1.9-0.8-1.9-1.9v-9.2c0-1,0.8-1.9,1.9-1.9s1.9,0.8,1.9,1.9v9.2
			C301.6,186,300.8,186.8,299.8,186.8z"/>
		<path class="st3" d="M299.8,211.3c-1,0-1.9-0.8-1.9-1.9V191c0-1,0.8-1.9,1.9-1.9s1.9,0.8,1.9,1.9v18.4
			C301.6,210.5,300.8,211.3,299.8,211.3z"/>
		<path class="st3" d="M277.3,294H165.5c-13.4,0-24.3-10.7-24.3-23.9V108.8c0-7.9,4-15.3,10.8-19.8c0.9-0.6,2-0.3,2.6,0.5
			c0.6,0.9,0.3,2-0.5,2.6c-5.7,3.8-9.1,10-9.1,16.7v161.3c0,11.1,9.2,20.1,20.6,20.1h111.8c11.3,0,20.6-9,20.6-20.1v-54.6
			c0-1,0.8-1.9,1.9-1.9s1.9,0.8,1.9,1.9v54.6C301.6,283.3,290.7,294,277.3,294z"/>
		<path class="st3" d="M190.4,73.1l-0.3,35.4c0,6.8-6,12.1-12.1,12.1c-6.1,0-12.6-5.4-12.6-12.2l0.1-37.5c0-4,4.5-7.6,8.2-7.6
			c3.7,0,7.4,3.5,7.4,7.5V103c0,0-1.5,3.1-3.1,3.1c-1.6,0-3.6-1.1-3.2-2.8V73.1h-3.1l-0.1,29.6c0,4.2,2.3,6.1,6.5,6.1
			s6.1-2.2,6.1-6.4V71.1c0-7-4.3-10.7-10.8-10.7s-11.2,3.9-11.2,10.8l0.1,37.1c0,9.3,6.7,15,15.6,15c8.9,0,15.7-5.2,15.7-14.5V73.1
			L190.4,73.1L190.4,73.1z"/>
		<path class="st3" d="M230.8,189.9h-72.1c-1,0-1.9-0.8-1.9-1.9s0.8-1.9,1.9-1.9h72.1c1,0,1.9,0.8,1.9,1.9S231.8,189.9,230.8,189.9z
			"/>
		<g>
			<path class="st3" d="M202.6,211.3h-43.9c-1,0-1.9-0.8-1.9-1.9s0.8-1.9,1.9-1.9h43.9c1,0,1.9,0.8,1.9,1.9S203.6,211.3,202.6,211.3
				z"/>
			<path class="st3" d="M284.1,211.3h-75.2c-1,0-1.9-0.8-1.9-1.9s0.8-1.9,1.9-1.9h75.2c1,0,1.9,0.8,1.9,1.9S285.1,211.3,284.1,211.3
				z"/>
		</g>
		<g>
			<path class="st3" d="M255.9,232.7h-34.5c-1,0-1.9-0.8-1.9-1.9s0.8-1.9,1.9-1.9h34.5c1,0,1.9,0.8,1.9,1.9S256.9,232.7,255.9,232.7
				z"/>
			<path class="st3" d="M287.2,232.7h-25.1c-1,0-1.9-0.8-1.9-1.9s0.8-1.9,1.9-1.9h25.1c1,0,1.9,0.8,1.9,1.9S288.3,232.7,287.2,232.7
				z"/>
			<path class="st3" d="M215.1,232.7h-56.4c-1,0-1.9-0.8-1.9-1.9s0.8-1.9,1.9-1.9h56.4c1,0,1.9,0.8,1.9,1.9S216.2,232.7,215.1,232.7
				z"/>
		</g>
		<g>
			<path class="st3" d="M284.1,254.2h-40.7c-1,0-1.9-0.8-1.9-1.9s0.8-1.9,1.9-1.9h40.7c1,0,1.9,0.8,1.9,1.9S285.1,254.2,284.1,254.2
				z"/>
			<path class="st3" d="M233.9,254.2h-75.2c-1,0-1.9-0.8-1.9-1.9s0.8-1.9,1.9-1.9h75.2c1,0,1.9,0.8,1.9,1.9S235,254.2,233.9,254.2z"
				/>
		</g>
	</g>
	<g class="st7">
		<path class="st8" d="M209,322.3c-0.6,0-1.3-0.2-1.8-0.7c-1-1-1-2.6,0-3.5l13.9-13.9c1-1,2.6-1,3.5,0c1,1,1,2.6,0,3.5l-13.9,13.9
			C210.3,322,209.6,322.3,209,322.3z"/>
		<g class="st9">
			<path class="st10" d="M149.6,379.8l-0.7-0.7c-5.3-5.3-5.3-13.9,0-19.2l40.4-40.4c5.3-5.3,14-5.3,19.2,0l0.7,0.7
				c5.3,5.3,5.3,14,0,19.2l-40.4,40.4C163.6,385.1,154.9,385.1,149.6,379.8z"/>
			<path class="st3" d="M159.3,386.3c-4.3,0-8.4-1.7-11.4-4.7l0,0l-0.7-0.7c-3-3-4.7-7.1-4.7-11.4s1.7-8.4,4.7-11.4l40.4-40.4
				c6.3-6.3,16.5-6.3,22.8,0l0.7,0.6c3,3,4.7,7.1,4.7,11.4c0,4.3-1.7,8.4-4.7,11.4l-40.4,40.4C167.6,384.6,163.6,386.3,159.3,386.3z
				 M151.4,378c4.3,4.3,11.4,4.3,15.7,0l40.4-40.4c4.3-4.3,4.3-11.4,0-15.7l-0.7-0.6c-4.3-4.3-11.4-4.3-15.7,0l-40.4,40.4
				c-4.3,4.3-4.3,11.4,0,15.7L151.4,378z"/>
		</g>
		<path class="st11" d="M207.5,321.2c-4.6-4.6-11.9-4.9-16.1-0.7l-0.8,0.8l1.7,1.7l15.1,15.1l0.8-0.8
			C212.4,333.1,212.1,325.8,207.5,321.2z"/>
		<path class="st8" d="M207.4,342c-0.5,0-1-0.2-1.3-0.6l-17.9-17.9c-0.7-0.7-0.7-1.9,0-2.6s1.9-0.7,2.6,0l17.9,17.9
			c0.7,0.7,0.7,1.9,0,2.6C208.4,341.8,207.9,342,207.4,342z"/>
		
			<ellipse transform="matrix(0.7071 -0.7071 0.7071 0.7071 -107.0931 265.3843)" class="st12" cx="266.8" cy="262" rx="49.2" ry="49.2"/>
		<g class="st9">
			<path class="st2" d="M310.4,218.3c-24.2-24.2-63.4-24.2-87.5,0s-24.2,63.4,0,87.5c24.2,24.2,63.4,24.2,87.5,0
				C334.6,281.7,334.6,242.5,310.4,218.3z M301.5,296.9c-19.2,19.2-50.4,19.2-69.6,0s-19.2-50.4,0-69.6c19.2-19.2,50.4-19.2,69.6,0
				C320.7,246.5,320.7,277.7,301.5,296.9z"/>
			<path class="st3" d="M266.7,326.5c-16.5,0-33-6.3-45.5-18.8c-12.2-12.2-18.9-28.3-18.9-45.5s6.7-33.4,18.9-45.5
				c25.1-25.1,66-25.1,91.1,0l0,0c25.1,25.1,25.1,66,0,91.1C299.7,320.2,283.2,326.5,266.7,326.5z M266.7,202.7
				c-15.2,0-30.4,5.8-42,17.4c-11.2,11.2-17.4,26.1-17.4,42s6.2,30.8,17.4,42c23.1,23.1,60.8,23.2,84,0c23.2-23.2,23.2-60.8,0-84
				l0,0C297.1,208.5,281.9,202.7,266.7,202.7z M266.7,313.8c-13.3,0-26.5-5-36.6-15.1c-20.2-20.2-20.2-53,0-73.2s53-20.2,73.2,0
				c20.2,20.2,20.2,53,0,73.2C293.2,308.8,279.9,313.8,266.7,313.8z M266.7,215.4c-12,0-23.9,4.6-33,13.7
				c-18.2,18.2-18.2,47.9,0,66.1c18.2,18.2,47.9,18.2,66.1,0c18.2-18.2,18.2-47.9,0-66.1C290.6,219.9,278.6,215.4,266.7,215.4z"/>
		</g>
		<path class="st8" d="M156.1,384c-0.3,0-0.5-0.2-0.6-0.4l-6.9-21.4c-0.1-0.3,0.1-0.7,0.4-0.8c0.3-0.1,0.7,0.1,0.8,0.4l6.9,21.4
			c0.1,0.3-0.1,0.7-0.4,0.8C156.3,384,156.2,384,156.1,384z"/>
		<path class="st8" d="M160.5,382.5c-0.3,0-0.5-0.2-0.6-0.4l-7.8-26.2c-0.1-0.3,0.1-0.7,0.4-0.8c0.3-0.1,0.7,0.1,0.8,0.4l7.8,26.2
			c0.1,0.3-0.1,0.7-0.4,0.8C160.6,382.5,160.6,382.5,160.5,382.5z"/>
		<path class="st8" d="M163.1,373.3c-0.3,0-0.5-0.2-0.6-0.4l-6.5-21.9c-0.1-0.3,0.1-0.7,0.4-0.8c0.3-0.1,0.7,0.1,0.8,0.4l6.5,21.9
			c0.1,0.3-0.1,0.7-0.4,0.8C163.3,373.3,163.2,373.3,163.1,373.3z"/>
		<path class="st8" d="M165.8,363.7c-0.3,0-0.5-0.2-0.6-0.4l-4.6-15.5c-0.1-0.3,0.1-0.7,0.4-0.8c0.3-0.1,0.7,0.1,0.8,0.4l4.6,15.5
			c0.1,0.3-0.1,0.7-0.4,0.8C165.9,363.7,165.9,363.7,165.8,363.7z"/>
	</g>
</g>
<g id="Ebene_2">
	<polygon class="st13" points="286,224.4 265.2,235.3 238.5,243 229.3,244.2 229.3,268 234.9,302 255.6,333.9 279.8,354.6 
		286,357.5 321.5,328.5 337.2,303.3 343.8,259.6 342.8,244.2 321.7,240.1 294.9,229 	"/>
	<g id="layer101">
		<path class="st14" d="M266.8,348c-29-24.9-38.7-44.9-39.4-81.6l-0.2-24.2l15.2-2.8c15-2.8,32.7-10.1,35.5-14.8
			c1.8-3,14.3-3,16.1,0c2.8,4.6,20.5,12,35.5,14.8l15.2,2.8l-0.2,24.2c-0.5,36-10.4,56.7-38.7,81.1
			C287.6,363.2,284.8,363.2,266.8,348z M303,342c9-8.3,15.2-15.9,15.2-18.7c0-3,1.2-4.1,3.2-3.5c7.4,3,19.8-35.5,19.8-61.8v-12
			l-12-1.4c-7.1-0.9-18.9-4.8-28.1-9.7L285,227l-8.1,5.3c-12.7,8.1-20.1,10.6-33.7,12.2l-12.7,1.6v12c0,26.3,12.4,64.8,19.8,61.8
			c2.1-0.7,3.2,0.5,3.2,3.5c0,4.4,27.9,32.7,32,32.7C286.7,356,294.5,349.8,303,342z"/>
		<path class="st14" d="M260.6,322.6c0-1.8,1.2-3.5,2.3-3.5c1.4,0,2.3,1.6,2.3,3.5s-0.9,3.5-2.3,3.5
			C261.8,326.1,260.6,324.4,260.6,322.6z"/>
		<path class="st14" d="M272.1,322.6c0-1.8,1.2-3.5,2.3-3.5c1.4,0,2.3,1.6,2.3,3.5s-0.9,3.5-2.3,3.5
			C273.3,326.1,272.1,324.4,272.1,322.6z"/>
		<path class="st14" d="M283.7,322.6c0-1.8,1.2-3.5,2.3-3.5c1.4,0,2.3,1.6,2.3,3.5s-0.9,3.5-2.3,3.5
			C284.8,326.1,283.7,324.4,283.7,322.6z"/>
		<path class="st14" d="M295.2,322.6c0-1.8,1.2-3.5,2.3-3.5c1.4,0,2.3,1.6,2.3,3.5s-0.9,3.5-2.3,3.5
			C296.3,326.1,295.2,324.4,295.2,322.6z"/>
		<path class="st14" d="M306.7,322.6c0-1.8,1.2-3.5,2.3-3.5c1.4,0,2.3,1.6,2.3,3.5s-0.9,3.5-2.3,3.5
			C307.9,326.1,306.7,324.4,306.7,322.6z"/>
		<path class="st14" d="M276.3,303.7c0-0.9-0.5-6.9-0.5-13.4c-0.2-6.2-1.2-13.4-2.3-15.4c-1.2-2.8,0-5.8,4.1-9.9
			c7.1-7.1,9.4-7.1,16.6,0c4.1,4.1,5.3,7.1,4.1,9.9c-1.2,2.1-2.1,9.7-2.1,16.6v12.7l-9.7,0.7C281.1,305.3,276.5,304.9,276.3,303.7z
			 M291.7,291.7c-0.9-5.8-0.5-10.6,1.6-13.8c3.9-6.2,0-12.9-7.4-12.9c-7.4,0-11.3,6.7-7.4,12.9c2.1,3.2,2.5,8.1,1.6,13.8
			c-1.6,9-1.4,9,5.8,9C293.1,300.7,293.3,300.7,291.7,291.7z"/>
		<path class="st14" d="M240.1,253.7c0.7-0.7,7.1-3,14.3-4.8c7.4-1.8,17.3-6,22.4-9.2l9.4-6l6.7,4.8c3.7,2.5,9.9,6,13.8,7.1
			c3.7,1.4,6.9,3.5,6.9,4.6c0,2.5-10.1-1.4-20.1-7.4l-7.1-4.6l-13.6,6.9C261.1,251.2,236.4,257.4,240.1,253.7z"/>
		<path class="st14" d="M322.8,252.3c0-1.2,0.9-2.3,2.1-2.3c1.4,0,3,1.2,3.7,2.3c0.7,1.4-0.2,2.3-2.1,2.3
			C324.5,254.6,322.8,253.7,322.8,252.3z"/>
	</g>
	<g id="layer102">
		<path class="st5" d="M280.2,291.7c0.9-5.8,0.5-10.6-1.6-13.8c-3.9-6.2,0-12.9,7.4-12.9c7.4,0,11.3,6.7,7.4,12.9
			c-2.1,3.2-2.5,8.1-1.6,13.8c1.6,9,1.4,9-5.8,9C278.8,300.7,278.6,300.7,280.2,291.7z"/>
	</g>
	<g id="layer105">
		<path class="st15" d="M248.2,287.8c-4.6-3.2-4.6-3.2,0-6.5c3.2-2.5,5.3-2.8,7.8-0.7c1.8,1.4,3.7,2.8,4.1,3c0.2,0-1.4,1.8-3.5,3.9
			C253,290.6,252.1,290.8,248.2,287.8z"/>
		<path class="st15" d="M283.9,251.4c-2.1-2.3-2.1-3.7-0.2-4.8c3.9-2.3,8.5,2.8,5.5,5.8C287.3,254.1,285.7,253.7,283.9,251.4z"/>
	</g>
</g>
</svg>
